# xmcd
#
# Track frame offsets: 
#        150
#        20575
#        38630
#        52172
#        80740
#        103054
#        125389
#        143192
#        161878
#        179171
#        193726
#        211857
#        226949
#        242617
#        259092
#        272468
#        290651
#        317917
#
# Disc length: 4492 seconds
#
# Revision: 0
# Processed by: cddbd v1.5.2PL0 Copyright (c) Steve Scherf et al.
# Submitted via: ExactAudioCopyFreeDBPlugin 1.0
#
DISCID=11118a12
DTITLE=Aktorių Trio - LRT Auksinė Kolekcija
DYEAR=2010
DGENRE=Pop
TTITLE0=Aš Mylėjau Tave Tau Nežinant
TTITLE1=Vakaras
TTITLE2=Ką Daryt?
TTITLE3=Akacija
TTITLE4=Atvirukas
TTITLE5=Paukščiai
TTITLE6=Pavasaris
TTITLE7=Močiutė
TTITLE8=Cigaretė
TTITLE9=Trys Broliai
TTITLE10=Lietus
TTITLE11=Mažam Broliui
TTITLE12=Daugiau Nebeliko
TTITLE13=Užtrauktukas
TTITLE14=Žalia Žalia
TTITLE15=Baladė Apie Muzikantą
TTITLE16=Chrizantemos
TTITLE17=Motinos Veidas
EXTD=
EXTT0=
EXTT1=
EXTT2=
EXTT3=
EXTT4=
EXTT5=
EXTT6=
EXTT7=
EXTT8=
EXTT9=
EXTT10=
EXTT11=
EXTT12=
EXTT13=
EXTT14=
EXTT15=
EXTT16=
EXTT17=
PLAYORDER=
